<?xml version="1.0" encoding="utf-8"?>
<!-- Generator: Adobe Illustrator 19.0.0, SVG Export Plug-In . SVG Version: 6.00 Build 0)  -->
<svg version="1.1" id="Layer_1" xmlns="http://www.w3.org/2000/svg" xmlns:xlink="http://www.w3.org/1999/xlink" x="0px" y="0px"
	 viewBox="0 0 500 500" style="enable-background:new 0 0 500 500;" xml:space="preserve">
<style type="text/css">
	.st0{fill:#376660;}
	.st1{fill:#529990;}
</style>
<path id="XMLID_1_" class="st0" d="M250,432.5c100.8,0,182.5-81.7,182.5-182.5S350.8,67.5,250,67.5S67.5,149.2,67.5,250
	S149.2,432.5,250,432.5z M250,405.1c-85.7,0-155.1-69.5-155.1-155.1c0-85.7,69.5-155.1,155.1-155.1c85.7,0,155.1,69.5,155.1,155.1
	C405.1,335.7,335.7,405.1,250,405.1z"/>
<path id="XMLID_4_" class="st1" d="M250,104c-80.6,0-146,65.4-146,146c0,80.6,65.4,146,146,146s146-65.4,146-146
	C396,169.4,330.6,104,250,104z M259,259h-82c-4.9,0-9.1-4-9.1-9c0-5.1,4.1-9,9.1-9h64V122.3c0-5.1,4-9.2,9-9.2c5.1,0,9,4.1,9,9.1
	V259z"/>
</svg>
